<?xml version="1.0" encoding="UTF-8"?>
<svg id="Layer_2" data-name="Layer 2" xmlns="http://www.w3.org/2000/svg" viewBox="0 0 944.43 166.98">
  <defs>
    <style>
      .cls-1 {
        fill: none;
      }
    </style>
  </defs>
  <g id="Layer_1-2" data-name="Layer 1">
    <g>
      <g>
        <path d="M625.5,112.18c.44,40.82-39.44,47.39-75.43,47.07-3.74-.03-6.27-1.06-9.7-1.7l-9.87-1.82c-22.21-4.09-40.11-21.07-42.31-44.55l36.51.5c2.89,6.28,6.28,12.75,13.44,15.64,22.59,9.13,53.36,5.03,50.55-13.43-2.9-19.06-71.48-7.12-89.21-35.69-12.19-19.65-3.39-45.08,17.9-54.17,23.95-10.23,50.82-10.77,75.04-1.42,10.73,4.14,19.93,11.13,24.58,21.41,2.7,5.97,5.32,11.32,5.16,18.03l-17.9.96c-6.38.34-12.2-1.54-19.43-.63-.87-15.77-19.28-21.97-34.91-19.4-5.96.98-12,2.26-15.58,7.54-2.07,3.05-2.86,6.6-1.65,10.38,2.01,6.28,12.49,9.02,20.87,10.25l19.38,2.85,17.55,3.12c19.6,3.48,34.77,14.33,35,35.08Z"/>
        <path d="M781.32,137.89l-.71-71.53c-.16-16.52-9-32.79-23.88-40.45-20.48-10.54-44.09-11.79-66.21-7.65-24.19,4.53-44.37,19.47-45.44,44.76l36.55.05c2.48-13.77,14.38-18.83,28.2-19.32,16.66-.59,31.24,9.16,31.72,26.88l-19.06,1.99-38.36,3.44-16.77,3.64c-7.81,1.7-15.79,5.7-20.61,12.06-12.68,16.7-10.06,41.27,5.25,55.26,16.67,15.24,51.67,16.01,71.97,2.46,8.7-5.81,13.96-13.59,19.37-22.77,2.56,4.86.84,9.83,1.46,14.38l1.93,14.05,36.41-.06-1.8-17.19ZM729.46,122.24c-10.98,9.01-25.97,10.9-39.84,6.71-9.37-2.83-14.6-12.37-10.86-20.95,2.96-6.81,10.39-9.64,17.35-10.79l21.47-2.37,24.58-3.78c.26,11.51-3.32,23.49-12.69,31.17Z"/>
        <path d="M936.81,137.89l-.71-71.53c-.16-16.52-9-32.79-23.88-40.45-20.48-10.54-44.09-11.79-66.21-7.65-24.19,4.53-44.37,19.47-45.44,44.76l36.55.05c2.48-13.77,14.38-18.83,28.2-19.32,16.66-.59,31.24,9.16,31.72,26.88l-19.06,1.99-38.36,3.44-16.77,3.64c-7.81,1.7-15.79,5.7-20.61,12.06-12.68,16.7-10.06,41.27,5.25,55.26,16.67,15.24,51.67,16.01,71.97,2.46,8.7-5.81,13.96-13.59,19.37-22.77,2.56,4.86.84,9.83,1.46,14.38l1.93,14.05,36.41-.06-1.8-17.19ZM884.95,122.24c-10.98,9.01-25.97,10.9-39.84,6.71-9.37-2.83-14.6-12.37-10.86-20.95,2.96-6.81,10.39-9.64,17.35-10.79l21.47-2.37,24.58-3.78c.26,11.51-3.32,23.49-12.69,31.17Z"/>
      </g>
      <polygon points="136.56 7.49 178.97 7.69 109.5 159.21 79.37 159.26 7.96 7.72 51.96 7.45 94.69 101.65 136.56 7.49"/>
      <path d="M252.22,132.71c17.16-.48,30.99-9.03,35.92-23.78l30.15,8.15c-7.37,21.58-26.23,36.9-50.16,41.37-21.56,4.03-43.7,1.21-61.94-10.25-26.26-16.5-36.31-45.65-31.7-74.01,6.48-39.81,45.95-64.97,88.22-57.84,43.46,7.33,61.12,41.69,56.48,80.72l-109.78-.04c1.04,21.39,19.74,36.32,42.81,35.67ZM283.96,73c-.22-17.97-14.28-28.67-31.6-30.35-21.3-2.06-40.11,10.17-41.99,30.33h73.59Z"/>
      <path d="M413.07,132.71c17.16-.48,30.99-9.03,35.92-23.78l30.15,8.15c-7.37,21.58-26.23,36.9-50.16,41.37-21.56,4.03-43.7,1.21-61.94-10.25-26.26-16.5-36.31-45.65-31.7-74.01,6.48-39.81,45.95-64.97,88.22-57.84,43.46,7.33,61.12,41.69,56.48,80.72l-109.78-.04c1.04,21.39,19.74,36.32,42.81,35.67ZM444.81,73c-.22-17.97-14.28-28.67-31.6-30.35-21.3-2.06-40.11,10.17-41.99,30.33h73.59Z"/>
      <rect class="cls-1" width="944.43" height="166.98"/>
    </g>
  </g>
</svg>